<?xml version="1.0" encoding="UTF-8" standalone="no"?>
<svg
   height="29.170971"
   viewBox="0 -960 1166.8388 1166.8388"
   width="29.170971"
   fill="#e3e3e3"
   version="1.1"
   id="svg1"
   sodipodi:docname="icon.svg"
   inkscape:version="1.4 (e7c3feb100, 2024-10-09)"
   xmlns:inkscape="http://www.inkscape.org/namespaces/inkscape"
   xmlns:sodipodi="http://sodipodi.sourceforge.net/DTD/sodipodi-0.dtd"
   xmlns="http://www.w3.org/2000/svg"
   xmlns:svg="http://www.w3.org/2000/svg">
  <defs
     id="defs1" />
  <sodipodi:namedview
     id="namedview1"
     pagecolor="#ffffff"
     bordercolor="#000000"
     borderopacity="0.25"
     inkscape:showpageshadow="2"
     inkscape:pageopacity="0.0"
     inkscape:pagecheckerboard="0"
     inkscape:deskcolor="#d1d1d1"
     inkscape:zoom="20.958333"
     inkscape:cx="-1.1451292"
     inkscape:cy="10.640159"
     inkscape:window-width="2560"
     inkscape:window-height="1371"
     inkscape:window-x="0"
     inkscape:window-y="32"
     inkscape:window-maximized="1"
     inkscape:current-layer="svg1" />
  <circle
     style="fill:#000000;fill-opacity:1;stroke:#000000;stroke-width:666.5"
     id="path2"
     cx="583.41943"
     cy="-376.58057"
     r="250.16942" />
  <path
     d="M 313.91643,16.739517 V -783.26048 h 80 v 80 h 560 l -80,200 80,200 h -560 V 16.739517 Z m 80,-639.999997 v 240 z m 220,200 q 33,0 56.5,-23.5 23.5,-23.5 23.5,-56.5 0,-33 -23.5,-56.5 -23.5,-23.5 -56.5,-23.5 -33,0 -56.5,23.5 -23.5,23.5 -23.5,56.5 0,33 23.5,56.5 23.5,23.5 56.5,23.5 z m -220,40 h 442 l -48,-120 48,-120 h -442 z"
     id="path1"
     style="stroke:#ffffff;stroke-opacity:1" />
</svg>
